# xmcd
#
# Track frame offsets:
# 150
# 23855
# 43375
# 64235
# 86715
# 108025
# 130778
# 150763
# 175043
# 199860
# 218875
# 240968
# 262320
# 283543
# 300630
# 325953
#
# Disc length: 4567 seconds
#
#
# Revision: 2
# Processed by: cddbd v1.5.1PL0 Copyright (c) Steve Scherf et al.
# Submitted via: FreeRIP 2.942 
#
DISCID=dc11d510
DTITLE=Lisa Stansfield - Lisa Stansfield
DYEAR=1900
DGENRE=
TTITLE0=Never Gonna Fall
TTITLE1=The Real Thing
TTITLE2=I'm Leavin'
TTITLE3=Suzanne
TTITLE4=Never, Never Gonna Give You Up
TTITLE5=Don't Cry for Me
TTITLE6=The Line
TTITLE7=The Very Thought of You
TTITLE8=You Know How to Love Me
TTITLE9=I Cried My Last Tear, Last Night
TTITLE10=Honest
TTITLE11=Somewhere in Time
TTITLE12=Got Me Missing You
TTITLE13=Footsteps
TTITLE14=The Real Thing (Touch Me)
TTITLE15=People Hold On (Bootleg Mix)
EXTD=
EXTT0=
EXTT1=
EXTT2=
EXTT3=
EXTT4=
EXTT5=
EXTT6=
EXTT7=
EXTT8=
EXTT9=
EXTT10=
EXTT11=
EXTT12=
EXTT13=
EXTT14=
EXTT15=
PLAYORDER=
